PathFileType	4	(X/Y/Z)	./resultDataOpenSim/trcMotMarkerGrf/sub09/qtm-04-09.trc
DataRate	CameraRate	NumFrames	NumMarkers	Units	OrigDataRate	OrigDataStartFrame	OrigNumFrames
250.000000	250.000000	7	24	m	250.000000	318	508
Frame#	Time	L.Toe.Tip			R.Toe.Tip			L.Ankle.Lat			R.Ankle.Lat			L.Ankle.Med			R.Ankle.Med			L.Heel			R.Heel			L.Knee.Lat			R.Knee.Lat			L.Knee.Med			R.Knee.Med			L.Thigh.Upper			R.Thigh.Upper			L.ASIS			R.ASIS			V.Sacral			L.Acromium			R.Acromium			C7			L.Elbow			R.Elbow			L.Wrist.Lat			R.Wrist.Lat
		X1	Y1	Z1	X2	Y2	Z2	X3	Y3	Z3	X4	Y4	Z4	X5	Y5	Z5	X6	Y6	Z6	X7	Y7	Z7	X8	Y8	Z8	X9	Y9	Z9	X10	Y10	Z10	X11	Y11	Z11	X12	Y12	Z12	X13	Y13	Z13	X14	Y14	Z14	X15	Y15	Z15	X16	Y16	Z16	X17	Y17	Z17	X18	Y18	Z18	X19	Y19	Z19	X20	Y20	Z20	X21	Y21	Z21	X22	Y22	Z22	X23	Y23	Z23	X24	Y24	Z24

318	1.268	0.23658638	-0.025579827	0.0017498923	1.1130434	0.044339932	0.11457307	0.17147292	0.11298723	-0.069605555	0.9653161	0.053618151	0.15276798	0.20598743	0.11177916	0.022053865	0.96911576	0.094218895	0.061430276	0.10702607	0.13930346	-0.022058824	0.89662513	0.031150489	0.10446532	0.46301017	0.42258093	-0.098561543	0.92593349	0.51156827	0.20322459	0.4726407	0.40424689	0.026044969	0.90811759	0.49333019	0.0794573	0.62033013	0.80100646	-0.10822049	0.67892649	0.82928015	0.26164053	0.73385506	0.86820199	-0.06355134	0.74819718	0.90134474	0.17342873	0.57798548	0.95267019	0.06247575	0.76741965	1.3403494	-0.096482894	0.71816637	1.3485234	0.23070845	0.6726902	1.3940085	0.057610851	0.71161875	0.96233835	-0.15668661	0.5434598	1.0322069	0.29041437	0.9799859	0.91109056	-0.1297667	0.61883904	0.77841863	0.35521314
319	1.272	0.23802295	-0.023759349	0.0011320053	1.1135104	0.043581968	0.11439506	0.17671597	0.11712021	-0.07005717	0.96580973	0.05346167	0.15258209	0.21171464	0.11489175	0.021452546	0.96964908	0.093930199	0.061131049	0.11347282	0.14517116	-0.022084075	0.89686402	0.031288558	0.1045132	0.47370996	0.42127959	-0.099480892	0.93169796	0.51136078	0.20332864	0.48353649	0.40227061	0.024984423	0.91408892	0.49405577	0.079567191	0.6280376	0.80064814	-0.10751135	0.68486971	0.83041252	0.26254721	0.74108675	0.86845206	-0.062306508	0.75477535	0.90242683	0.17441384	0.58365959	0.95320792	0.063045912	0.77445928	1.3409638	-0.095984965	0.72474405	1.3489014	0.2311413	0.67932065	1.3944939	0.057929511	0.71674232	0.96318393	-0.15643858	0.55094017	1.031838	0.2906595	0.98469391	0.90909592	-0.12946269	0.627398	0.7783531	0.35536075
320	1.276	0.23951847	-0.021672282	0.00053514716	1.1139104	0.043000411	0.11422152	0.18226888	0.1214685	-0.070391399	0.96612513	0.05326643	0.15241288	0.21765414	0.11819344	0.020984102	0.97011188	0.093704574	0.060837143	0.12022172	0.15126198	-0.022080018	0.8970672	0.031409052	0.10447932	0.48462334	0.41996389	-0.10035377	0.93685719	0.51099086	0.20349546	0.49463612	0.40034149	0.023990461	0.91998364	0.4945394	0.079619141	0.63566771	0.80033337	-0.10681318	0.69077886	0.83150692	0.26338862	0.74821025	0.86878526	-0.06108934	0.76132527	0.90360934	0.17547669	0.58840513	0.95405381	0.064121314	0.78145747	1.3416164	-0.095478603	0.73127202	1.3493537	0.23154701	0.68587074	1.3950859	0.058314751	0.72175709	0.9640591	-0.15634661	0.55829947	1.0314566	0.29094472	0.98931442	0.9070558	-0.12918161	0.63601319	0.77835292	0.3555028
321	1.28	0.24104183	-0.019348963	-6.3692449e-05	1.1142744	0.042560044	0.11397975	0.18816665	0.12602237	-0.070608268	0.96641614	0.053099637	0.15218972	0.22377328	0.12169504	0.020650525	0.97057387	0.093510196	0.060509377	0.12729316	0.15757098	-0.022043429	0.89726629	0.031519064	0.10435018	0.49583296	0.41864778	-0.10114509	0.94161788	0.51047757	0.20366995	0.50574723	0.3985168	0.023138135	0.92576958	0.49478686	0.079602642	0.64324261	0.80007104	-0.10615375	0.69670363	0.83257139	0.26415643	0.75523748	0.86918596	-0.0599071	0.76782729	0.90482479	0.17659147	0.5912705	0.9555327	0.06621218	0.78840903	1.342301	-0.094954025	0.73774971	1.3498732	0.23192749	0.69239393	1.3957751	0.058798259	0.72679495	0.96505094	-0.1563496	0.56555982	1.0311036	0.29122392	0.99384728	0.90496325	-0.12893081	0.64474268	0.77842702	0.3556449
322	1.284	0.24256132	-0.016830791	-0.00071167088	1.1146003	0.042208524	0.11366262	0.19443152	0.13078203	-0.070719546	0.96678858	0.05299498	0.15189294	0.23004549	0.12540004	0.020446317	0.97105996	0.093309489	0.060143392	0.13469973	0.16411389	-0.021975886	0.89745254	0.031610841	0.1041655	0.50738377	0.41732464	-0.10184524	0.94621683	0.50987048	0.20380336	0.51713165	0.39681538	0.02233258	0.93138626	0.49481715	0.079524093	0.65078286	0.79986083	-0.1055525	0.702675	0.83361559	0.26485806	0.7621502	0.86968304	-0.058752644	0.77425141	0.90601739	0.17772552	0.59197746	0.95771988	0.069437558	0.79530087	1.3430175	-0.094407629	0.74417279	1.35046	0.2322853	0.69892765	1.3965257	0.059334937	0.73193477	0.96619824	-0.15633314	0.57282603	1.0308249	0.29145187	0.99828623	0.90282055	-0.1287171	0.65361171	0.77857763	0.35577844
323	1.288	0.2440634	-0.014198559	-0.0014648478	1.1148631	0.0419152	0.11330531	0.2010809	0.13575222	-0.070760919	0.96721771	0.052943342	0.15156741	0.23648665	0.12930002	0.020362702	0.97154103	0.093079027	0.059761459	0.14244683	0.17092031	-0.021877339	0.89759326	0.031674927	0.10397997	0.51923175	0.41598081	-0.10245811	0.9508242	0.50925476	0.20391056	0.52910791	0.39527702	0.02146048	0.93676861	0.49466954	0.079408268	0.65828399	0.7996931	-0.10500009	0.70870315	0.83465601	0.26550826	0.76894034	0.87032263	-0.05761786	0.78057399	0.90716285	0.17885228	0.59275827	0.95996993	0.07263115	0.80210756	1.3437774	-0.093855896	0.75052304	1.3511282	0.23261975	0.70542248	1.3973129	0.059819218	0.73716004	0.96747192	-0.15623911	0.58019694	1.0306262	0.29164286	1.0026206	0.90064039	-0.12855911	0.66258241	0.77879762	0.35588211
324	1.292	0.24555225	-0.011506298	-0.0023610638	1.1150411	0.041685959	0.1129623	0.20812703	0.14093428	-0.070788295	0.96758825	0.052921231	0.15128469	0.2431435	0.13338079	0.02039253	0.97195374	0.092826924	0.05940514	0.15053708	0.17800857	-0.021737498	0.89765923	0.031711024	0.10383112	0.53127135	0.41460856	-0.10298109	0.95550896	0.50873335	0.20404476	0.54149957	0.39390397	0.020621245	0.94187599	0.49440969	0.079282648	0.66571089	0.79956258	-0.10448312	0.71478723	0.83570563	0.26612267	0.77562975	0.87112993	-0.05649309	0.78678835	0.90825996	0.17995668	0.59751019	0.96120076	0.073801496	0.80880224	1.3445989	-0.093328045	0.75678034	1.3518927	0.23292847	0.71180095	1.3981456	0.060172112	0.74242019	0.96882904	-0.15609542	0.58768758	1.0304825	0.29183531	1.0068457	0.89843834	-0.12847722	0.67158388	0.77907467	0.35593037
